<mxfile host="app.diagrams.net" agent="Mozilla/5.0 (Windows NT 10.0; Win64; x64) AppleWebKit/537.36 (KHTML, like Gecko) Chrome/138.0.0.0 Safari/537.36 Edg/138.0.0.0" version="28.0.7">
  <diagram name="Page-1" id="wYtTFpZ9ASJY-qu4CVdJ">
    <mxGraphModel dx="925" dy="512" grid="1" gridSize="10" guides="1" tooltips="1" connect="1" arrows="1" fold="1" page="1" pageScale="1" pageWidth="827" pageHeight="1169" math="0" shadow="0">
      <root>
        <mxCell id="0" />
        <mxCell id="1" parent="0" />
        <mxCell id="HVzZfGl38AdMBoZWMMSr-20" style="edgeStyle=orthogonalEdgeStyle;rounded=0;orthogonalLoop=1;jettySize=auto;html=1;exitX=0.5;exitY=1;exitDx=0;exitDy=0;entryX=0.5;entryY=0;entryDx=0;entryDy=0;" parent="1" source="HVzZfGl38AdMBoZWMMSr-21" target="HVzZfGl38AdMBoZWMMSr-25" edge="1">
          <mxGeometry relative="1" as="geometry" />
        </mxCell>
        <mxCell id="HVzZfGl38AdMBoZWMMSr-21" value="&lt;font style=&quot;font-size: 18px;&quot;&gt;search&lt;/font&gt;" style="rounded=1;whiteSpace=wrap;html=1;" parent="1" vertex="1">
          <mxGeometry x="120" y="140" width="100" height="40" as="geometry" />
        </mxCell>
        <mxCell id="HVzZfGl38AdMBoZWMMSr-22" style="edgeStyle=orthogonalEdgeStyle;rounded=0;orthogonalLoop=1;jettySize=auto;html=1;exitX=0.5;exitY=1;exitDx=0;exitDy=0;" parent="1" source="HVzZfGl38AdMBoZWMMSr-25" edge="1">
          <mxGeometry relative="1" as="geometry">
            <mxPoint x="170" y="290" as="targetPoint" />
          </mxGeometry>
        </mxCell>
        <mxCell id="HVzZfGl38AdMBoZWMMSr-23" style="edgeStyle=orthogonalEdgeStyle;rounded=0;orthogonalLoop=1;jettySize=auto;html=1;exitX=0.75;exitY=1;exitDx=0;exitDy=0;entryX=0.198;entryY=-0.006;entryDx=0;entryDy=0;entryPerimeter=0;" parent="1" source="HVzZfGl38AdMBoZWMMSr-25" target="HVzZfGl38AdMBoZWMMSr-29" edge="1">
          <mxGeometry relative="1" as="geometry" />
        </mxCell>
        <mxCell id="HVzZfGl38AdMBoZWMMSr-24" value="conflict" style="edgeLabel;html=1;align=center;verticalAlign=middle;resizable=0;points=[];" parent="HVzZfGl38AdMBoZWMMSr-23" vertex="1" connectable="0">
          <mxGeometry x="-0.1924" y="3" relative="1" as="geometry">
            <mxPoint as="offset" />
          </mxGeometry>
        </mxCell>
        <mxCell id="HVzZfGl38AdMBoZWMMSr-25" value="&lt;font style=&quot;font-size: 18px;&quot;&gt;propagate&lt;/font&gt;" style="rounded=1;whiteSpace=wrap;html=1;" parent="1" vertex="1">
          <mxGeometry x="120" y="210" width="100" height="40" as="geometry" />
        </mxCell>
        <mxCell id="HVzZfGl38AdMBoZWMMSr-26" style="edgeStyle=orthogonalEdgeStyle;rounded=0;orthogonalLoop=1;jettySize=auto;html=1;exitX=0.5;exitY=1;exitDx=0;exitDy=0;entryX=0.5;entryY=0;entryDx=0;entryDy=0;" parent="1" source="HVzZfGl38AdMBoZWMMSr-29" target="HVzZfGl38AdMBoZWMMSr-33" edge="1">
          <mxGeometry relative="1" as="geometry" />
        </mxCell>
        <mxCell id="HVzZfGl38AdMBoZWMMSr-27" style="edgeStyle=orthogonalEdgeStyle;rounded=0;orthogonalLoop=1;jettySize=auto;html=1;exitX=0.5;exitY=0;exitDx=0;exitDy=0;entryX=1;entryY=0.75;entryDx=0;entryDy=0;" parent="1" source="HVzZfGl38AdMBoZWMMSr-29" target="HVzZfGl38AdMBoZWMMSr-25" edge="1">
          <mxGeometry relative="1" as="geometry">
            <Array as="points">
              <mxPoint x="290" y="240" />
            </Array>
          </mxGeometry>
        </mxCell>
        <mxCell id="HVzZfGl38AdMBoZWMMSr-28" value="backtrack" style="edgeLabel;html=1;align=center;verticalAlign=middle;resizable=0;points=[];" parent="HVzZfGl38AdMBoZWMMSr-27" vertex="1" connectable="0">
          <mxGeometry x="-0.5417" y="3" relative="1" as="geometry">
            <mxPoint x="2" as="offset" />
          </mxGeometry>
        </mxCell>
        <mxCell id="NjNYj_LB1VzhY6sb5gwJ-3" style="edgeStyle=orthogonalEdgeStyle;rounded=0;orthogonalLoop=1;jettySize=auto;html=1;exitX=0.996;exitY=0.363;exitDx=0;exitDy=0;entryX=-0.001;entryY=0.355;entryDx=0;entryDy=0;fillColor=#f8cecc;strokeColor=#b85450;exitPerimeter=0;entryPerimeter=0;" parent="1" source="HVzZfGl38AdMBoZWMMSr-29" target="NjNYj_LB1VzhY6sb5gwJ-2" edge="1">
          <mxGeometry relative="1" as="geometry" />
        </mxCell>
        <mxCell id="HVzZfGl38AdMBoZWMMSr-29" value="&lt;font style=&quot;font-size: 18px;&quot;&gt;analyze&lt;/font&gt;&lt;span style=&quot;color: rgba(0, 0, 0, 0); font-family: monospace; font-size: 0px; text-align: start; text-wrap-mode: nowrap;&quot;&gt;%3CmxGraphModel%3E%3Croot%3E%3CmxCell%20id%3D%220%22%2F%3E%3CmxCell%20id%3D%221%22%20parent%3D%220%22%2F%3E%3CmxCell%20id%3D%222%22%20value%3D%22%26lt%3Bfont%20style%3D%26quot%3Bfont-size%3A%2018px%3B%26quot%3B%26gt%3Bsearch%26lt%3B%2Ffont%26gt%3B%22%20style%3D%22rounded%3D1%3BwhiteSpace%3Dwrap%3Bhtml%3D1%3B%22%20vertex%3D%221%22%20parent%3D%221%22%3E%3CmxGeometry%20x%3D%22160%22%20y%3D%22120%22%20width%3D%22100%22%20height%3D%2240%22%20as%3D%22geometry%22%2F%3E%3C%2FmxCell%3E%3C%2Froot%3E%3C%2FmxGraphModel%3E&lt;/span&gt;" style="rounded=1;whiteSpace=wrap;html=1;" parent="1" vertex="1">
          <mxGeometry x="240" y="290" width="100" height="40" as="geometry" />
        </mxCell>
        <mxCell id="HVzZfGl38AdMBoZWMMSr-30" style="edgeStyle=orthogonalEdgeStyle;rounded=0;orthogonalLoop=1;jettySize=auto;html=1;exitX=0.75;exitY=1;exitDx=0;exitDy=0;entryX=0.25;entryY=0;entryDx=0;entryDy=0;" parent="1" source="HVzZfGl38AdMBoZWMMSr-32" target="HVzZfGl38AdMBoZWMMSr-33" edge="1">
          <mxGeometry relative="1" as="geometry">
            <Array as="points">
              <mxPoint x="195" y="350" />
              <mxPoint x="265" y="350" />
            </Array>
          </mxGeometry>
        </mxCell>
        <mxCell id="HVzZfGl38AdMBoZWMMSr-31" style="edgeStyle=orthogonalEdgeStyle;rounded=0;orthogonalLoop=1;jettySize=auto;html=1;exitX=0.5;exitY=1;exitDx=0;exitDy=0;entryX=0.5;entryY=0;entryDx=0;entryDy=0;" parent="1" source="HVzZfGl38AdMBoZWMMSr-32" target="HVzZfGl38AdMBoZWMMSr-41" edge="1">
          <mxGeometry relative="1" as="geometry" />
        </mxCell>
        <mxCell id="HVzZfGl38AdMBoZWMMSr-32" value="&lt;font style=&quot;font-size: 18px;&quot;&gt;simplify&lt;/font&gt;" style="rounded=1;whiteSpace=wrap;html=1;" parent="1" vertex="1">
          <mxGeometry x="120" y="290" width="100" height="40" as="geometry" />
        </mxCell>
        <mxCell id="HVzZfGl38AdMBoZWMMSr-33" value="&lt;font style=&quot;font-size: 18px;&quot;&gt;UNSAT&lt;/font&gt;" style="rounded=1;whiteSpace=wrap;html=1;" parent="1" vertex="1">
          <mxGeometry x="240" y="520" width="100" height="40" as="geometry" />
        </mxCell>
        <mxCell id="HVzZfGl38AdMBoZWMMSr-34" value="&lt;font style=&quot;font-size: 18px;&quot;&gt;SAT&lt;/font&gt;" style="rounded=1;whiteSpace=wrap;html=1;" parent="1" vertex="1">
          <mxGeometry x="120" y="520" width="100" height="40" as="geometry" />
        </mxCell>
        <mxCell id="HVzZfGl38AdMBoZWMMSr-35" style="edgeStyle=orthogonalEdgeStyle;rounded=0;orthogonalLoop=1;jettySize=auto;html=1;exitX=0.5;exitY=1;exitDx=0;exitDy=0;entryX=0.5;entryY=0;entryDx=0;entryDy=0;" parent="1" source="HVzZfGl38AdMBoZWMMSr-38" target="HVzZfGl38AdMBoZWMMSr-34" edge="1">
          <mxGeometry relative="1" as="geometry" />
        </mxCell>
        <mxCell id="HVzZfGl38AdMBoZWMMSr-36" style="edgeStyle=orthogonalEdgeStyle;rounded=0;orthogonalLoop=1;jettySize=auto;html=1;exitX=0;exitY=0.5;exitDx=0;exitDy=0;entryX=0;entryY=0.5;entryDx=0;entryDy=0;" parent="1" source="HVzZfGl38AdMBoZWMMSr-38" target="HVzZfGl38AdMBoZWMMSr-25" edge="1">
          <mxGeometry relative="1" as="geometry">
            <Array as="points">
              <mxPoint x="80" y="465" />
              <mxPoint x="80" y="230" />
            </Array>
          </mxGeometry>
        </mxCell>
        <mxCell id="HVzZfGl38AdMBoZWMMSr-37" value="&lt;span style=&quot;color: rgba(0, 0, 0, 0); font-family: monospace; font-size: 0px; text-align: start; background-color: rgb(251, 251, 251);&quot;&gt;%3CmxGraphModel%3E%3Croot%3E%3CmxCell%20id%3D%220%22%2F%3E%3CmxCell%20id%3D%221%22%20parent%3D%220%22%2F%3E%3CmxCell%20id%3D%222%22%20value%3D%22(new%20decision%20level)%22%20style%3D%22edgeLabel%3Bhtml%3D1%3Balign%3Dcenter%3BverticalAlign%3Dmiddle%3Bresizable%3D0%3Bpoints%3D%5B%5D%3B%22%20vertex%3D%221%22%20connectable%3D%220%22%20parent%3D%221%22%3E%3CmxGeometry%20x%3D%22140%22%20y%3D%22327%22%20as%3D%22geometry%22%2F%3E%3C%2FmxCell%3E%3C%2Froot%3E%3C%2FmxGraphModel%3E&lt;/span&gt;new decision level" style="edgeLabel;html=1;align=center;verticalAlign=middle;resizable=0;points=[];" parent="HVzZfGl38AdMBoZWMMSr-36" vertex="1" connectable="0">
          <mxGeometry x="-0.5979" y="2" relative="1" as="geometry">
            <mxPoint x="12" y="-7" as="offset" />
          </mxGeometry>
        </mxCell>
        <mxCell id="HVzZfGl38AdMBoZWMMSr-38" value="&lt;font style=&quot;font-size: 18px;&quot;&gt;decide&lt;/font&gt;" style="rounded=1;whiteSpace=wrap;html=1;" parent="1" vertex="1">
          <mxGeometry x="120" y="450" width="100" height="40" as="geometry" />
        </mxCell>
        <mxCell id="HVzZfGl38AdMBoZWMMSr-39" style="edgeStyle=orthogonalEdgeStyle;rounded=0;orthogonalLoop=1;jettySize=auto;html=1;exitX=0.5;exitY=1;exitDx=0;exitDy=0;entryX=0.5;entryY=0;entryDx=0;entryDy=0;" parent="1" source="HVzZfGl38AdMBoZWMMSr-41" target="HVzZfGl38AdMBoZWMMSr-38" edge="1">
          <mxGeometry relative="1" as="geometry" />
        </mxCell>
        <mxCell id="HVzZfGl38AdMBoZWMMSr-40" style="edgeStyle=orthogonalEdgeStyle;rounded=0;orthogonalLoop=1;jettySize=auto;html=1;exitX=1;exitY=0.5;exitDx=0;exitDy=0;entryX=0;entryY=0.5;entryDx=0;entryDy=0;fillColor=#f8cecc;strokeColor=#000000;" parent="1" edge="1">
          <mxGeometry relative="1" as="geometry">
            <mxPoint x="220" y="385" as="sourcePoint" />
            <mxPoint x="314" y="385" as="targetPoint" />
            <Array as="points">
              <mxPoint x="270" y="385" />
              <mxPoint x="270" y="385" />
            </Array>
          </mxGeometry>
        </mxCell>
        <mxCell id="HVzZfGl38AdMBoZWMMSr-41" value="&lt;font style=&quot;font-size: 18px;&quot;&gt;interact&lt;/font&gt;" style="rounded=1;whiteSpace=wrap;html=1;" parent="1" vertex="1">
          <mxGeometry x="120" y="370" width="100" height="40" as="geometry" />
        </mxCell>
        <mxCell id="HVzZfGl38AdMBoZWMMSr-42" style="edgeStyle=orthogonalEdgeStyle;rounded=0;orthogonalLoop=1;jettySize=auto;html=1;exitX=0.5;exitY=1;exitDx=0;exitDy=0;entryX=0.75;entryY=0;entryDx=0;entryDy=0;fillColor=#f8cecc;strokeColor=#000000;" parent="1" source="HVzZfGl38AdMBoZWMMSr-49" target="HVzZfGl38AdMBoZWMMSr-33" edge="1">
          <mxGeometry relative="1" as="geometry" />
        </mxCell>
        <mxCell id="HVzZfGl38AdMBoZWMMSr-43" style="edgeStyle=orthogonalEdgeStyle;rounded=0;orthogonalLoop=1;jettySize=auto;html=1;exitX=0.25;exitY=0;exitDx=0;exitDy=0;entryX=0.75;entryY=1;entryDx=0;entryDy=0;fillColor=#f8cecc;strokeColor=#000000;" parent="1" source="HVzZfGl38AdMBoZWMMSr-49" target="HVzZfGl38AdMBoZWMMSr-29" edge="1">
          <mxGeometry relative="1" as="geometry" />
        </mxCell>
        <mxCell id="HVzZfGl38AdMBoZWMMSr-44" value="backtrack" style="edgeLabel;html=1;align=center;verticalAlign=middle;resizable=0;points=[];" parent="HVzZfGl38AdMBoZWMMSr-43" vertex="1" connectable="0">
          <mxGeometry x="-0.75" y="2" relative="1" as="geometry">
            <mxPoint x="-3" y="-2" as="offset" />
          </mxGeometry>
        </mxCell>
        <mxCell id="HVzZfGl38AdMBoZWMMSr-46" style="edgeStyle=orthogonalEdgeStyle;rounded=0;orthogonalLoop=1;jettySize=auto;html=1;exitX=0.5;exitY=0;exitDx=0;exitDy=0;entryX=1;entryY=0.5;entryDx=0;entryDy=0;fillColor=#f8cecc;strokeColor=#000000;" parent="1" source="HVzZfGl38AdMBoZWMMSr-49" target="HVzZfGl38AdMBoZWMMSr-25" edge="1">
          <mxGeometry relative="1" as="geometry" />
        </mxCell>
        <mxCell id="HVzZfGl38AdMBoZWMMSr-47" value="&lt;span style=&quot;color: rgba(0, 0, 0, 0); font-family: monospace; font-size: 0px; text-align: start; background-color: rgb(251, 251, 251);&quot;&gt;%3CmxGraphModel%3E%3Croot%3E%3CmxCell%20id%3D%220%22%2F%3E%3CmxCell%20id%3D%221%22%20parent%3D%220%22%2F%3E%3CmxCell%20id%3D%222%22%20value%3D%22backtrack%22%20style%3D%22edgeLabel%3Bhtml%3D1%3Balign%3Dcenter%3BverticalAlign%3Dmiddle%3Bresizable%3D0%3Bpoints%3D%5B%5D%3B%22%20vertex%3D%221%22%20connectable%3D%220%22%20parent%3D%221%22%3E%3CmxGeometry%20x%3D%22404%22%20y%3D%22803%22%20as%3D%22geometry%22%2F%3E%3C%2FmxCell%3E%3C%2Froot%3E%3C%2FmxGraphModel%back&lt;/span&gt;" style="edgeLabel;html=1;align=center;verticalAlign=middle;resizable=0;points=[];" parent="HVzZfGl38AdMBoZWMMSr-46" vertex="1" connectable="0">
          <mxGeometry x="-0.8344" relative="1" as="geometry">
            <mxPoint as="offset" />
          </mxGeometry>
        </mxCell>
        <mxCell id="HVzZfGl38AdMBoZWMMSr-48" value="backtrack" style="edgeLabel;html=1;align=center;verticalAlign=middle;resizable=0;points=[];" parent="HVzZfGl38AdMBoZWMMSr-46" vertex="1" connectable="0">
          <mxGeometry x="-0.8408" relative="1" as="geometry">
            <mxPoint y="-8" as="offset" />
          </mxGeometry>
        </mxCell>
        <mxCell id="cMZPuHcKSirYHIlFg2-8-1" style="edgeStyle=orthogonalEdgeStyle;rounded=0;orthogonalLoop=1;jettySize=auto;html=1;exitX=0;exitY=0.75;exitDx=0;exitDy=0;entryX=1;entryY=0.75;entryDx=0;entryDy=0;" edge="1" parent="1">
          <mxGeometry relative="1" as="geometry">
            <mxPoint x="314" y="395" as="sourcePoint" />
            <mxPoint x="220" y="395" as="targetPoint" />
          </mxGeometry>
        </mxCell>
        <mxCell id="HVzZfGl38AdMBoZWMMSr-49" value="&lt;font style=&quot;font-size: 18px;&quot;&gt;add&lt;/font&gt;" style="rounded=1;whiteSpace=wrap;html=1;" parent="1" vertex="1">
          <mxGeometry x="314" y="370" width="100" height="40" as="geometry" />
        </mxCell>
        <mxCell id="NjNYj_LB1VzhY6sb5gwJ-4" style="edgeStyle=orthogonalEdgeStyle;rounded=0;orthogonalLoop=1;jettySize=auto;html=1;exitX=0;exitY=0.75;exitDx=0;exitDy=0;fillColor=#f8cecc;strokeColor=#b85450;" parent="1" edge="1">
          <mxGeometry relative="1" as="geometry">
            <mxPoint x="390" y="315" as="sourcePoint" />
            <mxPoint x="340" y="315" as="targetPoint" />
            <Array as="points">
              <mxPoint x="370" y="315" />
              <mxPoint x="370" y="315" />
            </Array>
          </mxGeometry>
        </mxCell>
        <mxCell id="NjNYj_LB1VzhY6sb5gwJ-5" style="edgeStyle=orthogonalEdgeStyle;rounded=0;orthogonalLoop=1;jettySize=auto;html=1;exitX=0.5;exitY=0;exitDx=0;exitDy=0;entryX=1;entryY=0.25;entryDx=0;entryDy=0;fillColor=#f8cecc;strokeColor=#b85450;" parent="1" source="NjNYj_LB1VzhY6sb5gwJ-2" target="HVzZfGl38AdMBoZWMMSr-25" edge="1">
          <mxGeometry relative="1" as="geometry" />
        </mxCell>
        <mxCell id="NjNYj_LB1VzhY6sb5gwJ-6" value="backtrack" style="edgeLabel;html=1;align=center;verticalAlign=middle;resizable=0;points=[];" parent="NjNYj_LB1VzhY6sb5gwJ-5" vertex="1" connectable="0">
          <mxGeometry x="-0.8173" y="1" relative="1" as="geometry">
            <mxPoint x="1" y="-5" as="offset" />
          </mxGeometry>
        </mxCell>
        <mxCell id="NjNYj_LB1VzhY6sb5gwJ-2" value="&lt;font style=&quot;font-size: 18px;&quot;&gt;add reason&lt;/font&gt;" style="rounded=1;whiteSpace=wrap;html=1;fillColor=#f8cecc;strokeColor=#b85450;" parent="1" vertex="1">
          <mxGeometry x="390" y="290" width="100" height="40" as="geometry" />
        </mxCell>
      </root>
    </mxGraphModel>
  </diagram>
</mxfile>
